<svg xmlns="http://www.w3.org/2000/svg" xmlns:xlink="http://www.w3.org/1999/xlink" width="265" zoomAndPan="magnify" viewBox="0 0 198.75 64.499998" height="86" preserveAspectRatio="xMidYMid meet" version="1.0"><defs><g/><clipPath id="ff9b02a46d"><path d="M 31 45 L 94.53125 45 L 94.53125 63.339844 L 31 63.339844 Z M 31 45 " clip-rule="nonzero"/></clipPath><clipPath id="a09241d036"><path d="M 0.640625 15 L 45 15 L 45 52 L 0.640625 52 Z M 0.640625 15 " clip-rule="nonzero"/></clipPath></defs><g clip-path="url(#ff9b02a46d)"><path fill="#044700" d="M 76.867188 54.554688 C 76.867188 49.710938 80.78125 45.769531 85.628906 45.769531 C 90.460938 45.769531 94.390625 49.691406 94.390625 54.554688 C 94.390625 59.398438 90.476562 63.339844 85.628906 63.339844 C 80.800781 63.339844 76.867188 59.398438 76.867188 54.554688 Z M 40.753906 63.339844 C 45.582031 63.339844 49.515625 59.414062 49.515625 54.554688 C 49.515625 49.710938 45.601562 45.769531 40.753906 45.769531 C 35.902344 45.769531 31.992188 49.691406 31.992188 54.554688 C 31.992188 59.398438 35.921875 63.339844 40.753906 63.339844 Z M 40.753906 63.339844 " fill-opacity="1" fill-rule="nonzero"/></g><path fill="#ffffff" d="M 67.710938 45.148438 C 67.710938 45.148438 66.886719 47.308594 69.058594 47.308594 C 73.964844 47.308594 73.929688 50.179688 73.929688 50.179688 L 63.351562 50.179688 L 64.660156 45.148438 Z M 67.710938 45.148438 " fill-opacity="1" fill-rule="nonzero"/><path fill="#ffffff" d="M 74.582031 56.300781 C 72.710938 51.382812 74.601562 45.710938 79.28125 42.972656 C 83.964844 40.230469 89.824219 41.375 93.175781 45.410156 Z M 74.582031 56.300781 " fill-opacity="1" fill-rule="nonzero"/><path fill="#044700" d="M 56.890625 39.292969 C 52.902344 46.386719 58.125 50.179688 58.125 50.179688 L 69.191406 50.179688 C 70.578125 49.652344 73.648438 46.539062 75.648438 41.917969 C 77.652344 37.300781 70.726562 22.808594 70.726562 22.808594 C 73.648438 19.109375 81.265625 20.800781 81.265625 20.800781 L 81.265625 28.664062 L 76.867188 27.425781 L 83.175781 40.378906 L 71.492188 54.554688 L 30.605469 54.554688 L 39.066406 39.292969 Z M 56.890625 39.292969 " fill-opacity="1" fill-rule="nonzero"/><path fill="#044700" d="M 81.265625 54.554688 C 81.265625 52.132812 83.214844 50.179688 85.628906 50.179688 C 88.042969 50.179688 89.992188 52.132812 89.992188 54.554688 C 89.992188 56.976562 88.042969 58.925781 85.628906 58.925781 C 83.214844 58.925781 81.265625 56.976562 81.265625 54.554688 Z M 40.753906 58.925781 C 43.167969 58.925781 45.113281 56.976562 45.113281 54.554688 C 45.113281 52.132812 43.167969 50.179688 40.753906 50.179688 C 38.335938 50.179688 36.390625 52.132812 36.390625 54.554688 C 36.390625 56.976562 38.335938 58.925781 40.753906 58.925781 Z M 40.753906 58.925781 " fill-opacity="1" fill-rule="nonzero"/><path fill="#ffffff" d="M 59.8125 39.292969 L 35.0625 39.292969 L 35.0625 34.523438 L 59.8125 34.523438 Z M 42.136719 41.695312 C 35.472656 41.695312 28.453125 47.457031 28.453125 54.554688 L 52.585938 54.554688 C 52.585938 45.84375 50.972656 41.695312 42.136719 41.695312 Z M 66.382812 22.039062 C 64.585938 21.121094 63.125 12.015625 57.789062 12.332031 C 52.433594 12.632812 50.132812 23.730469 49.515625 26.65625 L 57.808594 27.425781 C 58.425781 24.347656 60.261719 20.40625 60.261719 20.40625 C 60.261719 20.40625 61.328125 25.71875 64.023438 26.1875 C 65.597656 26.449219 68.574219 26.828125 70.800781 27.089844 L 71.34375 23.109375 C 69.527344 22.902344 67.355469 22.527344 66.382812 22.039062 Z M 66.382812 22.039062 " fill-opacity="1" fill-rule="nonzero"/><path fill="#044700" d="M 65.652344 5.386719 C 65.652344 8.371094 63.238281 10.777344 60.28125 10.777344 C 57.300781 10.777344 54.90625 8.355469 54.90625 5.386719 C 54.90625 2.421875 57.300781 0 60.28125 0 C 63.238281 0 65.652344 2.421875 65.652344 5.386719 Z M 74.265625 23.429688 C 74.265625 23.429688 72.953125 23.335938 71.363281 23.128906 L 70.820312 27.109375 C 72.429688 27.296875 73.648438 27.425781 73.648438 27.425781 C 75.183594 26.039062 75.40625 25.738281 74.265625 23.429688 Z M 74.265625 23.429688 " fill-opacity="1" fill-rule="nonzero"/><g clip-path="url(#a09241d036)"><path fill="#044700" d="M 44.589844 34.523438 L 25.230469 34.523438 L 25.230469 15.710938 L 44.589844 15.710938 Z M 32.476562 40.378906 C 32.476562 40.117188 32.253906 39.890625 31.992188 39.890625 L 17.085938 39.890625 C 16.824219 39.890625 16.601562 40.117188 16.601562 40.378906 C 16.601562 40.644531 16.824219 40.867188 17.085938 40.867188 L 31.992188 40.867188 C 32.269531 40.867188 32.476562 40.644531 32.476562 40.378906 Z M 27.570312 44.378906 C 27.570312 44.117188 27.347656 43.890625 27.085938 43.890625 L 4.488281 43.890625 C 4.226562 43.890625 4 44.117188 4 44.378906 C 4 44.640625 4.226562 44.867188 4.488281 44.867188 L 27.085938 44.867188 C 27.347656 44.867188 27.570312 44.660156 27.570312 44.378906 Z M 32.476562 51.324219 C 32.476562 51.0625 32.253906 50.835938 31.992188 50.835938 L 13.398438 50.835938 C 13.136719 50.835938 12.914062 51.0625 12.914062 51.324219 C 12.914062 51.585938 13.136719 51.8125 13.398438 51.8125 L 31.992188 51.8125 C 32.269531 51.8125 32.476562 51.585938 32.476562 51.324219 Z M 36.875 48.359375 C 36.875 48.097656 36.652344 47.871094 36.390625 47.871094 L 19.691406 47.871094 C 19.429688 47.871094 19.203125 48.097656 19.203125 48.359375 C 19.203125 48.621094 19.429688 48.847656 19.691406 48.847656 L 36.390625 48.847656 C 36.671875 48.847656 36.875 48.621094 36.875 48.359375 Z M 23.285156 30.054688 C 23.285156 29.792969 23.058594 29.566406 22.796875 29.566406 L 1.265625 29.566406 C 1.003906 29.566406 0.78125 29.792969 0.78125 30.054688 C 0.78125 30.316406 1.003906 30.542969 1.265625 30.542969 L 22.777344 30.542969 C 23.058594 30.542969 23.285156 30.316406 23.285156 30.054688 Z M 22.40625 25.738281 C 22.40625 25.472656 22.179688 25.25 21.917969 25.25 L 7.707031 25.25 C 7.445312 25.25 7.222656 25.472656 7.222656 25.738281 C 7.222656 26 7.445312 26.226562 7.707031 26.226562 L 21.917969 26.226562 C 22.179688 26.226562 22.40625 26 22.40625 25.738281 Z M 22.40625 25.738281 " fill-opacity="1" fill-rule="nonzero"/></g><path fill="#044700" d="M 69.023438 3.359375 L 54.90625 5.652344 C 54.90625 5.558594 54.886719 5.480469 54.886719 5.386719 C 54.886719 2.421875 57.300781 0 60.28125 0 C 62.542969 0 64.472656 1.40625 65.257812 3.378906 L 68.929688 2.796875 Z M 49.515625 26.65625 C 48.894531 29.585938 49.664062 34.523438 52.585938 34.523438 L 59.8125 34.523438 C 64.117188 34.523438 65.351562 38.691406 63.5 45.148438 L 68.253906 45.148438 C 70.558594 36.210938 71.324219 33.585938 68.253906 32.046875 C 65.183594 30.503906 57.191406 30.503906 57.808594 27.425781 Z M 49.515625 26.65625 " fill-opacity="1" fill-rule="nonzero"/><g fill="#ffffff" fill-opacity="1"><g transform="translate(93.388734, 23.502733)"><g><path d="M 11.503906 -5.054688 C 10.863281 -4.050781 9.660156 -3.628906 8.460938 -3.628906 C 8.042969 -3.628906 7.652344 -3.65625 7.289062 -3.796875 L 15.164062 -9.4375 C 14.296875 -12.0625 11.617188 -14.410156 8.125 -14.410156 C 4.078125 -14.410156 0.808594 -11.113281 0.808594 -7.035156 C 0.808594 -3.015625 4.214844 0.308594 8.460938 0.308594 C 10.972656 0.308594 13.460938 -0.835938 14.660156 -2.625 Z M 4.832031 -7.035156 C 4.832031 -9.019531 6.3125 -10.445312 8.125 -10.445312 C 8.878906 -10.445312 9.523438 -10.191406 10.082031 -9.773438 L 4.941406 -6.117188 C 4.859375 -6.394531 4.832031 -6.703125 4.832031 -7.035156 Z M 4.832031 -7.035156 "/></g></g></g><g fill="#ffffff" fill-opacity="1"><g transform="translate(109.860586, 23.502733)"><g><path d="M 15.609375 -7.035156 C 15.609375 -11.113281 12.929688 -14.410156 9.074219 -14.410156 C 7.792969 -14.410156 6.144531 -14.019531 5.363281 -13.125 L 5.363281 -14.101562 L 1.394531 -14.101562 L 1.394531 0 L 5.363281 0 L 5.363281 -7.035156 C 5.363281 -9.300781 6.980469 -10.445312 8.742188 -10.445312 C 10.359375 -10.445312 11.671875 -9.300781 11.671875 -7.035156 L 11.671875 0 L 15.609375 0 Z M 15.609375 -7.035156 "/></g></g></g><g fill="#ffffff" fill-opacity="1"><g transform="translate(127.169978, 23.502733)"><g><path d="M 9.660156 -10.445312 L 9.660156 -14.101562 L 6.3125 -14.101562 L 6.3125 -18.820312 L 2.34375 -15.945312 L 2.34375 -14.101562 L 0.222656 -14.101562 L 0.222656 -10.445312 L 2.34375 -10.445312 L 2.34375 -5.835938 C 2.34375 -2.179688 5.363281 0.308594 9.578125 0.308594 L 9.578125 -3.628906 C 7.761719 -3.628906 6.3125 -4.355469 6.3125 -5.949219 L 6.3125 -10.445312 Z M 9.660156 -10.445312 "/></g></g></g><g fill="#ffffff" fill-opacity="1"><g transform="translate(137.751139, 23.502733)"><g><path d="M 9.464844 -14.351562 C 9.101562 -14.410156 8.824219 -14.410156 8.488281 -14.410156 C 7.398438 -14.410156 6.226562 -14.046875 5.363281 -13.125 L 5.363281 -14.101562 L 1.394531 -14.101562 L 1.394531 0 L 5.363281 0 L 5.363281 -7.035156 C 5.363281 -9.300781 6.675781 -10.445312 8.210938 -10.445312 C 8.65625 -10.445312 9.074219 -10.386719 9.464844 -10.25 Z M 9.464844 -14.351562 "/></g></g></g><g fill="#ffffff" fill-opacity="1"><g transform="translate(148.081038, 23.502733)"><g><path d="M 11.503906 -5.054688 C 10.863281 -4.050781 9.660156 -3.628906 8.460938 -3.628906 C 8.042969 -3.628906 7.652344 -3.65625 7.289062 -3.796875 L 15.164062 -9.4375 C 14.296875 -12.0625 11.617188 -14.410156 8.125 -14.410156 C 4.078125 -14.410156 0.808594 -11.113281 0.808594 -7.035156 C 0.808594 -3.015625 4.214844 0.308594 8.460938 0.308594 C 10.972656 0.308594 13.460938 -0.835938 14.660156 -2.625 Z M 4.832031 -7.035156 C 4.832031 -9.019531 6.3125 -10.445312 8.125 -10.445312 C 8.878906 -10.445312 9.523438 -10.191406 10.082031 -9.773438 L 4.941406 -6.117188 C 4.859375 -6.394531 4.832031 -6.703125 4.832031 -7.035156 Z M 4.832031 -7.035156 "/></g></g></g><g fill="#ffffff" fill-opacity="1"><g transform="translate(164.552892, 23.502733)"><g><path d="M 7.929688 3.101562 C 6.757812 3.101562 5.722656 2.484375 5.136719 1.507812 L 1.925781 3.824219 C 3.238281 5.753906 5.417969 7.035156 7.929688 7.035156 C 11.925781 7.035156 15.136719 3.796875 15.136719 -0.140625 L 15.136719 -14.101562 L 11.171875 -14.101562 L 11.171875 -13.125 C 10.554688 -13.792969 8.992188 -14.410156 7.734375 -14.410156 C 3.964844 -14.410156 0.808594 -11.113281 0.808594 -7.035156 C 0.808594 -3.015625 3.882812 0.308594 7.734375 0.308594 C 9.019531 0.308594 10.554688 -0.195312 11.171875 -1.003906 L 11.171875 0.113281 C 11.171875 1.789062 9.746094 3.101562 7.929688 3.101562 Z M 8.125 -3.628906 C 6.3125 -3.628906 4.832031 -5.027344 4.832031 -7.035156 C 4.832031 -9.019531 6.3125 -10.445312 8.125 -10.445312 C 9.96875 -10.445312 11.335938 -9.019531 11.335938 -7.035156 C 11.335938 -5.027344 9.96875 -3.628906 8.125 -3.628906 Z M 8.125 -3.628906 "/></g></g></g><g fill="#ffffff" fill-opacity="1"><g transform="translate(181.583108, 23.502733)"><g><path d="M 11.171875 -14.101562 L 11.171875 -13.125 C 10.554688 -13.792969 8.992188 -14.410156 7.734375 -14.410156 C 3.964844 -14.410156 0.808594 -11.113281 0.808594 -7.035156 C 0.808594 -3.015625 3.882812 0.308594 7.734375 0.308594 C 9.019531 0.308594 10.554688 -0.195312 11.171875 -1.003906 L 11.171875 0 L 15.136719 0 L 15.136719 -14.101562 Z M 8.125 -3.628906 C 6.3125 -3.628906 4.832031 -5.027344 4.832031 -7.035156 C 4.832031 -9.019531 6.3125 -10.445312 8.125 -10.445312 C 9.96875 -10.445312 11.335938 -9.019531 11.335938 -7.035156 C 11.335938 -5.027344 9.96875 -3.628906 8.125 -3.628906 Z M 8.125 -3.628906 "/></g></g></g><g fill="#044700" fill-opacity="1"><g transform="translate(139.787616, 53.463578)"><g><path d="M 9.550781 -21 C 5.722656 -21 2.542969 -18.207031 2.542969 -14.296875 L 2.542969 -14.101562 L 0.613281 -14.101562 L 0.613281 -10.445312 L 2.542969 -10.445312 L 2.542969 0 L 6.507812 0 L 6.507812 -10.445312 L 9.269531 -10.445312 L 9.269531 -14.101562 L 6.507812 -14.101562 L 6.507812 -14.4375 C 6.507812 -15.804688 7.707031 -16.921875 9.550781 -16.921875 Z M 9.550781 -21 "/></g></g></g><g fill="#044700" fill-opacity="1"><g transform="translate(150.229188, 53.463578)"><g><path d="M 9.941406 -21.222656 L 6.617188 -16.027344 L 10.359375 -16.027344 L 12.539062 -19.351562 Z M 11.171875 -14.101562 L 11.171875 -13.125 C 10.554688 -13.792969 8.992188 -14.410156 7.734375 -14.410156 C 3.964844 -14.410156 0.808594 -11.113281 0.808594 -7.035156 C 0.808594 -3.015625 3.882812 0.308594 7.734375 0.308594 C 9.019531 0.308594 10.554688 -0.195312 11.171875 -1.003906 L 11.171875 0 L 15.136719 0 L 15.136719 -14.101562 Z M 8.125 -3.628906 C 6.3125 -3.628906 4.832031 -5.027344 4.832031 -7.035156 C 4.832031 -9.019531 6.3125 -10.445312 8.125 -10.445312 C 9.96875 -10.445312 11.335938 -9.019531 11.335938 -7.035156 C 11.335938 -5.027344 9.96875 -3.628906 8.125 -3.628906 Z M 8.125 -3.628906 "/></g></g></g><g fill="#044700" fill-opacity="1"><g transform="translate(167.259405, 53.463578)"><g><path d="M 11.476562 -6.480469 C 11.226562 -4.773438 9.859375 -3.628906 8.125 -3.628906 C 6.3125 -3.628906 4.832031 -5.027344 4.832031 -7.035156 C 4.832031 -9.019531 6.3125 -10.445312 8.125 -10.445312 C 9.101562 -10.445312 10.023438 -10.109375 10.75 -9.1875 L 13.90625 -11.644531 C 12.539062 -13.320312 10.445312 -14.410156 8.125 -14.410156 C 4.078125 -14.410156 0.808594 -11.113281 0.808594 -7.035156 C 0.808594 -3.015625 4.078125 0.308594 8.125 0.308594 C 12.007812 0.308594 15.273438 -2.707031 15.554688 -6.480469 Z M 11.476562 -6.480469 "/></g></g></g><g fill="#044700" fill-opacity="1"><g transform="translate(184.094195, 53.463578)"><g><path d="M 3.351562 -16.585938 C 4.691406 -16.585938 5.722656 -17.621094 5.722656 -18.847656 C 5.722656 -19.996094 4.691406 -21.027344 3.351562 -21.027344 C 2.121094 -21.027344 1.0625 -19.964844 1.0625 -18.847656 C 1.0625 -17.621094 2.121094 -16.585938 3.351562 -16.585938 Z M 5.363281 -14.101562 L 1.394531 -14.101562 L 1.394531 0 L 5.363281 0 Z M 5.363281 -14.101562 "/></g></g></g><g fill="#044700" fill-opacity="1"><g transform="translate(191.353111, 53.463578)"><g><path d="M 1.394531 -20.804688 L 1.394531 0 L 5.363281 0 L 5.363281 -20.804688 Z M 1.394531 -20.804688 "/></g></g></g></svg>